<?xml version="1.0"?>
<svg width="750" height="260" xmlns="http://www.w3.org/2000/svg" xmlns:svg="http://www.w3.org/2000/svg">
 <g class="layer">
  <title>Layer 1</title>
  <g id="svg_1" transform="translate(-2 -1) translate(-292 -237)">
   <path d="m383.01,312.09c-8.15,-7.6 -13.53,-16.88 -14.33,-28.16q-0.06,-1.01 -0.08,-2.01q-0.02,-1.01 0.02,-2.02q0.03,-1 0.12,-2.01q0.08,-1 0.21,-2q0.14,-1 0.32,-1.99q0.19,-0.98 0.42,-1.96q0.23,-0.99 0.51,-1.95q0.28,-0.97 0.61,-1.92q0.33,-0.95 0.71,-1.89q0.37,-0.93 0.79,-1.85q0.43,-0.91 0.89,-1.8q0.47,-0.9 0.98,-1.76q0.51,-0.87 1.06,-1.71q0.56,-0.84 1.15,-1.66q0.59,-0.81 1.23,-1.59q0.63,-0.78 1.3,-1.53q0.66,-0.76 1.36,-1.48q0.7,-0.72 1.43,-1.41q0.73,-0.68 1.49,-1.33q0.77,-0.65 1.56,-1.26q0.8,-0.61 1.62,-1.18q0.83,-0.57 1.68,-1.09q0.86,-0.53 1.73,-1.01q0.88,-0.49 1.78,-0.92q0.9,-0.44 1.83,-0.83q0.92,-0.4 1.86,-0.74q0.94,-0.35 1.9,-0.65q0.95,-0.3 1.92,-0.55q0.98,-0.25 1.96,-0.45q0.98,-0.2 1.97,-0.35q0.99,-0.15 1.99,-0.26q0.99,-0.1 2,-0.15c12.88,-0.66 22.82,4.71 32.12,13.04c6.13,3.46 10.91,12.43 12.66,18.97q0.26,0.97 0.47,1.96q0.21,0.98 0.37,1.98q0.16,1 0.27,2q0.12,1 0.18,2.01q0.07,1 0.08,2.01q0.02,1.01 -0.02,2.02q-0.03,1.01 -0.11,2.02q-0.09,1 -0.22,2q-0.13,1 -0.31,1.99q-0.18,1 -0.41,1.98q-0.22,0.98 -0.5,1.95q-0.27,0.97 -0.59,1.93q-0.33,0.96 -0.69,1.9q-0.37,0.93 -0.79,1.86q-0.41,0.92 -0.87,1.82q-0.45,0.89 -0.95,1.77c-5.34,9.17 -14.17,16.27 -24.51,18.9q-1.29,0.32 -2.61,0.55q-1.31,0.23 -2.64,0.38q-1.32,0.14 -2.66,0.2q-1.33,0.06 -2.66,0.03q-1.34,-0.03 -2.67,-0.15q-1.33,-0.11 -2.65,-0.32q-1.31,-0.21 -2.62,-0.5q-1.3,-0.29 -2.58,-0.67c-0.85,-0.11 -2.08,-0.43 -2.92,-0.38c-1.98,0.11 -7.01,3.88 -9.1,4.94c-5.13,2.61 -9.84,4.23 -15.54,5.25c4.68,5.82 5.89,17.09 5.15,24.15c-1.18,11.19 -8.04,20.96 -16.3,28.28c2.08,5.01 4.7,7.75 7.59,12.13c0.9,1.37 1.3,2.26 0.94,3.87c-0.58,0.26 -0.97,0.43 -1.62,0.48c-7.84,0.71 -18.67,-6.83 -24.5,-11.59q-1.91,0.48 -3.86,0.77q-1.95,0.3 -3.92,0.4q-1.97,0.1 -3.94,0.02q-1.97,-0.09 -3.92,-0.37q-0.97,-0.13 -1.93,-0.32q-0.96,-0.19 -1.91,-0.42q-0.95,-0.23 -1.88,-0.51q-0.94,-0.28 -1.86,-0.61q-0.92,-0.32 -1.83,-0.69q-0.9,-0.38 -1.79,-0.79q-0.88,-0.42 -1.74,-0.87q-0.87,-0.46 -1.71,-0.97q-0.83,-0.5 -1.65,-1.04q-0.81,-0.54 -1.6,-1.12q-0.78,-0.58 -1.54,-1.2q-0.75,-0.62 -1.48,-1.28q-0.72,-0.66 -1.41,-1.35q-0.69,-0.69 -1.35,-1.41q-0.65,-0.73 -1.27,-1.49q-0.62,-0.75 -1.2,-1.54q-0.62,-0.82 -1.19,-1.66q-0.57,-0.85 -1.1,-1.73q-0.53,-0.87 -1.01,-1.77q-0.49,-0.9 -0.93,-1.83q-0.44,-0.92 -0.83,-1.86q-0.39,-0.95 -0.74,-1.91q-0.35,-0.96 -0.64,-1.94q-0.3,-0.98 -0.55,-1.97q-0.25,-0.99 -0.45,-2q-0.2,-1 -0.35,-2.01q-0.15,-1.01 -0.25,-2.03q-0.1,-1.02 -0.15,-2.04q-0.04,-1.02 -0.04,-2.04q0,-1.03 0.05,-2.05q0.06,-1.02 0.16,-2.04q0.1,-1.02 0.26,-2.03q0.15,-1.01 0.35,-2.02q0.2,-1.01 0.45,-2.01q0.25,-0.99 0.55,-1.97q0.3,-0.99 0.64,-1.95q0.35,-0.97 0.75,-1.92q0.4,-0.94 0.84,-1.87q0.44,-0.93 0.93,-1.83q0.49,-0.9 1.03,-1.78q0.53,-0.88 1.11,-1.73q0.58,-0.85 1.2,-1.66q0.62,-0.82 1.28,-1.61q0.66,-0.79 1.36,-1.54q0.7,-0.75 1.44,-1.47q0.73,-0.72 1.5,-1.39q0.77,-0.68 1.58,-1.32q0.8,-0.64 1.64,-1.24c9.03,-6.46 20.6,-8.73 31.47,-6.76c12.41,2.24 20.6,9.52 27.6,19.49c4.75,-4.83 7.9,-11.1 11.05,-17.01z" id="svg_2"/>
   <path d="m439.12,253.66c6.13,3.46 10.91,12.43 12.66,18.97q0.26,0.97 0.47,1.96q0.21,0.98 0.37,1.98q0.16,1 0.27,2q0.12,1 0.18,2.01q0.07,1 0.08,2.01q0.02,1.01 -0.02,2.02q-0.03,1.01 -0.11,2.02q-0.09,1 -0.22,2q-0.13,1 -0.31,1.99q-0.18,1 -0.41,1.98q-0.22,0.98 -0.5,1.95q-0.27,0.97 -0.59,1.93q-0.33,0.96 -0.69,1.9q-0.37,0.93 -0.79,1.86q-0.41,0.92 -0.87,1.82q-0.45,0.89 -0.95,1.77c-5.34,9.17 -14.17,16.27 -24.51,18.9q-1.29,0.32 -2.61,0.55q-1.31,0.23 -2.64,0.38q-1.32,0.14 -2.66,0.2q-1.33,0.06 -2.66,0.03q-1.34,-0.03 -2.67,-0.15q-1.33,-0.11 -2.65,-0.32q-1.31,-0.21 -2.62,-0.5q-1.3,-0.29 -2.58,-0.67c10.7,0.62 20.37,-0.2 29.56,-6.26c9.11,-6.01 15.05,-15.32 17.11,-25.99c2.72,-14.08 -2.01,-24.92 -9.64,-36.34z" fill="#EA6E6B" id="svg_3"/>
   <path d="m363.38,384.49c-0.38,-0.71 -0.32,-0.48 -0.47,-1.16c-0.8,-3.72 6.09,-8.92 8.19,-12.4c4.64,-7.66 7.2,-18.17 5.81,-27.14c-0.6,-3.85 -2.1,-7.68 -3.05,-11.46l0.67,-0.27c4.68,5.82 5.89,17.09 5.15,24.15c-1.18,11.19 -8.04,20.96 -16.3,28.28z" fill="#9DB3B0" id="svg_4"/>
   <path d="m331.92,313.39c2.22,-0.11 4.49,-0.25 6.71,-0.13q0.9,0.05 1.8,0.15q0.89,0.1 1.78,0.24q0.89,0.15 1.77,0.33q0.89,0.19 1.76,0.42q0.87,0.23 1.73,0.5q0.85,0.27 1.7,0.59q0.84,0.31 1.67,0.66q0.83,0.36 1.64,0.75q0.81,0.4 1.6,0.83q0.79,0.44 1.55,0.91q0.77,0.47 1.51,0.98q0.75,0.51 1.46,1.06q0.72,0.54 1.41,1.12q0.69,0.58 1.35,1.2q0.66,0.61 1.29,1.26q0.62,0.64 1.22,1.32q0.59,0.67 1.14,1.37q0.55,0.71 1.07,1.43q0.52,0.73 1,1.49q0.48,0.75 0.93,1.52q0.44,0.78 0.85,1.58q0.41,0.79 0.78,1.61q0.36,0.81 0.69,1.64q0.33,0.83 0.62,1.68q0.29,0.85 0.53,1.71q0.25,0.86 0.45,1.73q0.2,0.87 0.37,1.75q0.16,0.88 0.27,1.76q0.12,0.89 0.2,1.78q0.07,0.89 0.11,1.78q0.03,0.9 0.02,1.79q-0.02,0.9 -0.07,1.79c-0.81,11.93 -7.05,20.23 -15.72,27.76c1.54,4.97 3.21,9.81 5.16,14.64c-4.35,-1.95 -8.14,-4.13 -11.73,-7.3c-0.76,-0.88 -1.72,-2.26 -2.74,-2.82c-1.29,-0.69 -6.67,1.26 -8.29,1.63c-7.04,1.59 -16.8,-1.6 -22.76,-5.36q-0.76,-0.49 -1.49,-1q-0.73,-0.52 -1.44,-1.08q-0.7,-0.55 -1.38,-1.14q-0.67,-0.58 -1.32,-1.2q-0.65,-0.62 -1.26,-1.27q-0.62,-0.65 -1.21,-1.33q-0.58,-0.68 -1.13,-1.39q-0.55,-0.71 -1.06,-1.44q-0.52,-0.73 -0.99,-1.49q-0.48,-0.76 -0.92,-1.54q-0.44,-0.78 -0.84,-1.58q-0.41,-0.8 -0.77,-1.62q-0.36,-0.82 -0.68,-1.66q-0.32,-0.84 -0.6,-1.69q-0.28,-0.85 -0.52,-1.71q-0.24,-0.86 -0.43,-1.74c-1.91,-8.6 -0.23,-19.47 4.59,-26.91c6.22,-9.62 15.58,-15.11 26.62,-17.36z" fill="#54B5C0" id="svg_5"/>
   <path d="m364.88,354.55c1.02,-0.07 1.05,-0.01 1.92,0.55l-0.24,1.09c-5.36,1.7 -36.1,0.68 -43.85,0.71l-1.91,-0.29l-0.42,-0.88c4.23,-2.23 37.61,-1.1 44.5,-1.18z" fill="#FCF6F4" id="svg_6"/>
   <path d="m329.29,334.25c0.91,0.75 1.47,2.2 2.02,3.25c2.18,1.18 4.42,0.58 6.86,0.65c1.68,0.05 2.02,0.28 3.09,1.48l-0.52,0.8c-6.93,0.72 -14.19,0.25 -21.16,0.21c-3.91,0 -7.62,0.29 -11.37,-0.94l-0.08,-0.68c6.36,-1.88 13.19,0.65 19.17,-1.02c1.53,-1.21 1.51,-1.93 1.99,-3.75z" fill="#FCF6F4" id="svg_7"/>
   <path d="m408.22,244.96c7.94,0.4 14.78,2.09 21.43,6.74q0.76,0.53 1.49,1.09q0.72,0.57 1.42,1.17q0.7,0.6 1.37,1.24q0.67,0.63 1.3,1.3q0.64,0.67 1.24,1.37q0.6,0.7 1.17,1.43q0.56,0.73 1.09,1.48q0.53,0.76 1.02,1.54q0.49,0.78 0.94,1.59q0.45,0.8 0.86,1.63q0.4,0.83 0.77,1.67q0.37,0.85 0.69,1.71q0.33,0.87 0.61,1.74q0.28,0.88 0.52,1.77q0.23,0.89 0.42,1.8q0.2,0.9 0.34,1.81c1.54,9.72 -0.9,20.24 -6.82,28.13q-0.36,0.47 -0.72,0.93q-0.37,0.46 -0.75,0.91q-0.39,0.45 -0.79,0.89q-0.39,0.43 -0.81,0.85q-0.41,0.43 -0.84,0.83q-0.42,0.41 -0.86,0.8q-0.44,0.4 -0.9,0.77q-0.45,0.38 -0.92,0.74q-0.46,0.36 -0.94,0.71q-0.48,0.35 -0.97,0.68q-0.49,0.33 -0.99,0.64q-0.5,0.31 -1.01,0.61q-0.51,0.29 -1.03,0.57q-0.52,0.28 -1.05,0.54q-0.53,0.26 -1.07,0.5q-0.54,0.24 -1.08,0.47q-0.55,0.22 -1.1,0.42q-0.56,0.21 -1.12,0.4q-0.56,0.18 -1.12,0.35q-0.57,0.16 -1.14,0.31q-0.57,0.15 -1.14,0.28q-0.58,0.13 -1.16,0.24q-0.58,0.1 -1.16,0.19q-0.59,0.09 -1.17,0.16q-0.59,0.07 -1.18,0.12q-0.59,0.05 -1.18,0.08q-0.58,0.03 -1.17,0.03q-0.59,0.01 -1.18,0q-0.59,-0.01 -1.18,-0.04q-0.59,-0.03 -1.18,-0.08q-0.59,-0.05 -1.17,-0.12q-0.59,-0.07 -1.17,-0.16c-2.05,-0.31 -5.37,-2.04 -7.26,-1.68c-0.18,0.04 -0.36,0.08 -0.54,0.13c-4.77,5.16 -10.59,7.32 -17.09,9.48c3.46,-4.81 6.41,-9.46 8.39,-15.08q-1.71,-1.32 -3.38,-2.69c-6.85,-5.73 -10.99,-14.22 -11.74,-23.07c-0.84,-9.89 2.03,-19.74 8.52,-27.31c6.97,-8.12 16.03,-11.8 26.49,-12.61z" fill="#EA6E6B" id="svg_8"/>
   <path d="m379.05,280.86c4.5,-1.06 9.85,-0.56 14.48,-0.55c5.96,0.01 40.67,-0.69 43.33,0.52c0.37,0.17 1.05,1.06 1.37,1.39c-1.18,0.25 -2.37,0.47 -3.58,0.51c-5.83,0.19 -51.75,0.41 -54.07,-0.48c-0.39,-0.15 -1.18,-1.07 -1.53,-1.39z" fill="#FCF6F4" id="svg_9"/>
   <path d="m388.87,289.18c0.83,-0.15 1.67,-0.29 2.51,-0.35c5.94,-0.42 41.97,-0.74 45.13,0.41c0.36,0.13 1.03,0.86 1.36,1.13c-1.05,0.28 -2.13,0.52 -3.22,0.57c-5.56,0.24 -41.39,0.82 -44.4,-0.49c-0.38,-0.17 -1.04,-0.96 -1.38,-1.27z" fill="#FCF6F4" id="svg_10"/>
   <path d="m401.33,267.58c0.46,0.64 0.37,0.39 0.56,1c0.2,0.66 0.31,1.25 0.8,1.76c2.19,2.26 7.38,1.58 10.25,1.5l0.36,1.1l-0.65,0.71c-6.22,0.84 -12.88,0.22 -19.15,0.06c-3.21,0.05 -9.62,0.91 -12.48,-0.08c-1.03,-0.36 -1.16,-0.4 -1.62,-1.38c2.71,-2.12 15.78,-0.61 19.83,-0.74c1.52,-1.14 1.56,-2.2 2.1,-3.93z" fill="#FCF6F4" id="svg_11"/>
   <path d="m488.38,474.36c-4.25,0.67 -8.42,1.25 -12.73,0.99q-1,-0.05 -2,-0.15q-0.99,-0.11 -1.98,-0.26q-0.99,-0.15 -1.97,-0.35q-0.98,-0.2 -1.95,-0.45q-0.97,-0.25 -1.93,-0.55q-0.95,-0.3 -1.89,-0.64q-0.94,-0.35 -1.86,-0.74q-0.92,-0.39 -1.82,-0.83q-0.9,-0.44 -1.78,-0.92q-0.87,-0.48 -1.72,-1.01q-0.86,-0.53 -1.68,-1.09q-0.82,-0.57 -1.62,-1.18q-0.79,-0.61 -1.55,-1.26q-0.77,-0.65 -1.5,-1.33q-0.72,-0.69 -1.42,-1.41q-0.69,-0.72 -1.35,-1.47q-0.69,-0.81 -1.34,-1.66q-0.65,-0.84 -1.26,-1.71q-0.6,-0.88 -1.17,-1.78q-0.56,-0.9 -1.09,-1.83q-0.52,-0.92 -0.99,-1.88q-0.48,-0.95 -0.9,-1.92q-0.43,-0.98 -0.82,-1.97q-0.38,-0.99 -0.71,-2.01q-0.33,-1.01 -0.61,-2.03q-0.29,-1.03 -0.52,-2.07q-0.23,-1.03 -0.41,-2.08q-0.19,-1.05 -0.32,-2.11q-0.13,-1.05 -0.21,-2.11q-0.08,-1.06 -0.11,-2.13q-0.03,-1.06 0,-2.13q0.02,-1.06 0.09,-2.12q0.09,-1.01 0.22,-2.01q0.13,-1.01 0.32,-2q0.18,-1 0.41,-1.99q0.23,-0.98 0.5,-1.96q0.28,-0.97 0.61,-1.93q0.32,-0.96 0.69,-1.9q0.37,-0.94 0.79,-1.86q0.42,-0.93 0.88,-1.83q0.46,-0.9 0.96,-1.78q0.51,-0.87 1.05,-1.73q0.55,-0.85 1.14,-1.67q0.58,-0.83 1.21,-1.62q0.63,-0.8 1.29,-1.56q0.67,-0.77 1.36,-1.5q0.71,-0.73 1.44,-1.43q0.74,-0.69 1.5,-1.35q0.78,-0.66 1.6,-1.27q0.81,-0.62 1.65,-1.19q0.84,-0.58 1.7,-1.11q0.87,-0.53 1.77,-1.02q0.89,-0.49 1.81,-0.93q0.92,-0.45 1.85,-0.84q0.94,-0.4 1.9,-0.75q0.96,-0.35 1.93,-0.65q0.97,-0.3 1.96,-0.55q0.99,-0.25 1.99,-0.45q0.99,-0.2 2,-0.35q1.01,-0.15 2.02,-0.26q1.02,-0.1 2.03,-0.15q1.02,-0.05 2.04,-0.04q1.02,0 2.04,0.05q1.01,0.05 2.03,0.15c12.37,1.23 21.83,7.83 29.52,17.2c6.51,5.49 9.7,14.98 10.35,23.19c0.87,11.2 -2.08,21.69 -9.54,30.23c-1.86,2.14 -3.98,3.48 -6.45,4.84c2.39,5.42 5.9,8.86 8.74,13.74c0.78,1.34 0.92,1.7 0.49,3.16c-0.47,0.17 -0.68,0.27 -1.15,0.35c-7.81,1.3 -19.66,-6.42 -25.53,-11.04z" id="svg_12"/>
   <path d="m511.47,409.89c6.51,5.49 9.7,14.98 10.35,23.19c0.87,11.2 -2.08,21.69 -9.54,30.23c-1.86,2.14 -3.98,3.48 -6.45,4.84c-0.33,-1.08 -1.01,-2.36 -0.62,-3.48c1.24,-3.52 8.79,-9.61 11.61,-18.34c4.29,-13.29 0.7,-24.59 -5.35,-36.44z" fill="#EFB364" id="svg_13"/>
   <path d="m476.64,396.75c0.54,-0.04 1.04,-0.07 1.58,-0.05q0.96,0.03 1.91,0.11q0.96,0.08 1.91,0.21q0.95,0.13 1.89,0.3q0.94,0.18 1.87,0.4q0.93,0.22 1.85,0.49q0.92,0.28 1.82,0.59q0.91,0.32 1.79,0.68q0.89,0.36 1.75,0.77q0.87,0.4 1.72,0.85q0.84,0.45 1.66,0.94q0.82,0.5 1.62,1.03q0.8,0.53 1.56,1.1q0.77,0.58 1.51,1.19q0.73,0.61 1.44,1.25q0.71,0.65 1.38,1.33q0.67,0.69 1.3,1.4q0.61,0.69 1.18,1.41q0.58,0.73 1.11,1.48q0.54,0.75 1.04,1.52q0.5,0.77 0.96,1.57q0.46,0.8 0.88,1.62q0.42,0.82 0.8,1.66q0.38,0.84 0.72,1.69q0.34,0.86 0.63,1.73q0.3,0.87 0.56,1.76q0.25,0.89 0.46,1.78q0.21,0.9 0.37,1.81q0.17,0.9 0.29,1.82q0.12,0.91 0.2,1.83q0.07,0.92 0.1,1.84q0.04,0.92 0.02,1.84q-0.01,0.92 -0.07,1.84c-0.8,11.5 -6.55,19.33 -14.85,26.65c1.45,5.69 3.46,10.63 6.35,15.72c-6.04,-2.17 -10.41,-4.65 -15.16,-8.92c-1.95,-1.3 -5.53,0.26 -7.85,0.58c-9.95,1.38 -19.08,-0.77 -27.07,-7.01q-0.75,-0.6 -1.46,-1.22q-0.71,-0.63 -1.39,-1.29q-0.68,-0.67 -1.33,-1.36q-0.65,-0.69 -1.26,-1.42q-0.61,-0.72 -1.19,-1.48q-0.57,-0.75 -1.11,-1.54q-0.54,-0.78 -1.04,-1.59q-0.5,-0.8 -0.96,-1.64q-0.45,-0.83 -0.87,-1.68q-0.42,-0.85 -0.79,-1.73q-0.38,-0.87 -0.71,-1.76q-0.33,-0.89 -0.61,-1.79q-0.29,-0.91 -0.53,-1.83q-0.24,-0.92 -0.44,-1.85q-0.19,-0.93 -0.34,-1.86q-0.15,-0.94 -0.26,-1.88c-1.15,-9.97 1.53,-19.24 7.87,-27c7.13,-8.72 16.19,-12.77 27.19,-13.89z" fill="#EFB364" id="svg_14"/>
   <path d="m469.19,416.74c1.41,1.01 1.18,3.77 2.55,4.36c2.58,1.13 6.18,-0.54 9.04,0.99c-3.15,2.85 -16.63,1.39 -21.15,1.35c-3.46,0.09 -7.03,0.42 -10.38,-0.64l-0.27,-0.66c6.07,-1.8 13.89,0.84 18.88,-1.05c1.38,-1.45 1.17,-2.42 1.33,-4.35z" fill="#FCF6F4" id="svg_15"/>
   <path d="m507.92,368.42c-4.53,0.86 -8.99,1.37 -13.61,0.94q-1.01,-0.1 -2.01,-0.25q-1,-0.15 -1.99,-0.35q-1,-0.2 -1.98,-0.45q-0.98,-0.24 -1.95,-0.54q-0.97,-0.29 -1.93,-0.64q-0.95,-0.34 -1.89,-0.73q-0.93,-0.39 -1.85,-0.83q-0.91,-0.44 -1.8,-0.92q-0.9,-0.48 -1.76,-1q-0.87,-0.52 -1.71,-1.09q-0.84,-0.57 -1.65,-1.18q-0.81,-0.6 -1.59,-1.25q-0.78,-0.65 -1.53,-1.33q-0.75,-0.69 -1.46,-1.41q-0.71,-0.72 -1.39,-1.48q-0.67,-0.75 -1.31,-1.54c-7.19,-8.85 -10.26,-20.14 -9.04,-31.44c1.14,-10.65 6.7,-20.95 15.17,-27.55c8.89,-6.91 20.44,-9.5 31.52,-8.04c12.81,1.68 21.49,8.91 29.12,18.77c5.9,5.97 8.52,15.32 8.45,23.52q0,0.87 -0.05,1.73q-0.04,0.87 -0.13,1.73q-0.08,0.87 -0.2,1.72q-0.12,0.86 -0.28,1.72q-0.16,0.85 -0.36,1.69q-0.2,0.85 -0.43,1.68q-0.24,0.84 -0.51,1.66q-0.27,0.83 -0.58,1.64q-0.31,0.81 -0.66,1.6q-0.34,0.8 -0.73,1.58q-0.38,0.78 -0.79,1.54q-0.42,0.76 -0.87,1.5q-0.44,0.75 -0.93,1.47q-0.48,0.72 -0.99,1.42q-0.51,0.7 -1.06,1.37q-0.54,0.68 -1.12,1.33c-2.18,2.43 -5.02,4.9 -6.58,7.78c1.18,2.73 2.63,5.42 4.37,7.83c1.65,2.26 6.63,6.1 7.2,8.48c-0.84,1.02 -0.92,1.24 -2.25,1.36c-7.31,0.64 -21.45,-7.49 -26.86,-12.04z" id="svg_16"/>
   <path d="m533.28,306.11c5.9,5.97 8.52,15.32 8.45,23.52q0,0.87 -0.05,1.73q-0.04,0.87 -0.13,1.73q-0.08,0.87 -0.2,1.72q-0.12,0.86 -0.28,1.72q-0.16,0.85 -0.36,1.69q-0.2,0.85 -0.43,1.68q-0.24,0.84 -0.51,1.66q-0.27,0.83 -0.58,1.64q-0.31,0.81 -0.66,1.6q-0.34,0.8 -0.73,1.58q-0.38,0.78 -0.79,1.54q-0.42,0.76 -0.87,1.5q-0.44,0.75 -0.93,1.47q-0.48,0.72 -0.99,1.42q-0.51,0.7 -1.06,1.37q-0.54,0.68 -1.12,1.33c-2.18,2.43 -5.02,4.9 -6.58,7.78c-0.03,-0.04 -0.05,-0.08 -0.07,-0.12c-0.23,-0.58 -0.91,-2.05 -0.93,-2.62c-0.08,-2.42 9.25,-12.66 10.73,-16.2c5.56,-13.29 3.26,-25.01 -1.91,-37.74z" fill="#EA6E6B" id="svg_17"/>
   <path d="m492.28,291.57c2.04,-0.12 4.09,-0.24 6.13,-0.23q0.89,0 1.78,0.04q0.89,0.04 1.77,0.12q0.89,0.09 1.76,0.21q0.88,0.13 1.76,0.3q0.87,0.17 1.73,0.39q0.86,0.21 1.71,0.47q0.85,0.25 1.69,0.55q0.83,0.3 1.66,0.64q0.82,0.33 1.62,0.71q0.8,0.38 1.59,0.8q0.78,0.42 1.54,0.87q0.77,0.46 1.5,0.95q0.74,0.49 1.46,1.02q0.71,0.53 1.4,1.1q0.68,0.56 1.34,1.16q0.66,0.59 1.29,1.22q0.62,0.65 1.22,1.32q0.59,0.68 1.15,1.38q0.57,0.7 1.09,1.43q0.53,0.73 1.01,1.49q0.49,0.75 0.94,1.53q0.45,0.78 0.86,1.58q0.42,0.8 0.79,1.62q0.37,0.82 0.7,1.66q0.33,0.83 0.62,1.68q0.28,0.86 0.53,1.72q0.25,0.87 0.45,1.74q0.2,0.88 0.36,1.77q0.16,0.88 0.27,1.77q0.12,0.9 0.19,1.79q0.07,0.9 0.09,1.8q0.03,0.9 0.01,1.8c-0.24,12.81 -6.37,21.18 -15.2,29.64c1.54,5.39 3.47,10.32 6.01,15.32c-4.25,-1.54 -7.97,-3.31 -11.71,-5.84l-4.16,-4.09c-1.76,0.56 -3.54,1.09 -5.34,1.51c-8.27,1.9 -17.9,-0.39 -24.96,-4.89q-0.78,-0.49 -1.54,-1.03q-0.76,-0.53 -1.49,-1.1q-0.74,-0.57 -1.44,-1.17q-0.7,-0.61 -1.37,-1.25q-0.67,-0.63 -1.32,-1.31q-0.63,-0.67 -1.24,-1.37q-0.6,-0.7 -1.18,-1.43q-0.57,-0.73 -1.1,-1.49q-0.53,-0.76 -1.03,-1.54q-0.49,-0.79 -0.95,-1.6q-0.45,-0.8 -0.87,-1.63q-0.41,-0.83 -0.79,-1.68q-0.37,-0.85 -0.7,-1.71q-0.33,-0.87 -0.62,-1.75q-0.29,-0.88 -0.53,-1.78q-0.24,-0.89 -0.44,-1.8q-0.2,-0.91 -0.34,-1.83q-0.15,-0.92 -0.26,-1.85q-0.1,-0.93 -0.16,-1.86q-0.06,-0.94 -0.07,-1.87q-0.01,-0.94 0.02,-1.87q0.04,-0.93 0.12,-1.86q0.08,-0.93 0.2,-1.86q0.12,-0.92 0.3,-1.84q0.17,-0.92 0.38,-1.83q0.22,-0.91 0.47,-1.81q0.26,-0.89 0.57,-1.78q0.3,-0.88 0.64,-1.75q0.35,-0.87 0.74,-1.72q0.38,-0.85 0.81,-1.68q0.43,-0.83 0.9,-1.64q0.47,-0.8 0.98,-1.59c5.86,-9 14.4,-13.58 24.66,-15.77z" fill="#EA6E6B" id="svg_18"/>
   <path d="m479.81,333.98c7.13,-0.86 40.49,-1.14 46.39,0.03l0.85,1.51c-7.12,0.28 -40.92,1.46 -46.15,-0.05c-0.58,-0.17 -0.8,-0.97 -1.09,-1.49z" fill="#FCF6F4" id="svg_19"/>
   <path d="m490.24,313.63c0.64,0.71 1.06,1.72 1.52,2.56c2.8,1.81 6.06,0.3 9.1,1.04c1,0.25 0.85,0.43 1.36,1.25c-2.02,1.64 -18.35,0.77 -21.91,0.73c-4,0.04 -8.04,0.22 -12.02,-0.12l-0.7,-1.01l0.57,-1.05c5.83,-2.11 13.9,1.57 20.05,-0.49c1.43,-0.47 1.5,-1.62 2.03,-2.91z" fill="#FCF6F4" id="svg_20"/>
   <path d="m368.06,405.62c2.38,-0.11 4.79,-0.24 7.18,-0.14c11.24,0.44 21.71,5.12 29.33,13.45c7.35,8.03 11.7,19.56 11.21,30.46c-0.55,12.15 -5.99,20.69 -14.66,28.65c2.95,6.76 6.42,10.83 11.12,16.39l-0.26,0.95c-0.21,0.1 -0.42,0.22 -0.63,0.31c-3.69,1.62 -12.08,-1.93 -15.76,-3.35c-4.42,-1.96 -8.06,-4.63 -11.75,-7.69c-0.37,0.08 -0.73,0.17 -1.1,0.25c-11.29,2.29 -22.65,0.89 -32.35,-5.66q-0.84,-0.57 -1.65,-1.17q-0.81,-0.61 -1.59,-1.25q-0.77,-0.65 -1.52,-1.33q-0.74,-0.68 -1.45,-1.4q-0.72,-0.72 -1.39,-1.47q-0.67,-0.75 -1.31,-1.54q-0.64,-0.78 -1.23,-1.6q-0.6,-0.81 -1.15,-1.66q-0.56,-0.84 -1.07,-1.71q-0.52,-0.87 -0.98,-1.76q-0.47,-0.9 -0.9,-1.81q-0.42,-0.92 -0.8,-1.86q-0.38,-0.93 -0.71,-1.89q-0.33,-0.95 -0.62,-1.92q-0.28,-0.97 -0.52,-1.95q-0.23,-0.98 -0.42,-1.98q-0.19,-1 -0.34,-2q-0.14,-1.01 -0.23,-2.02q-0.1,-1.02 -0.14,-2.03q-0.04,-1.02 -0.04,-2.04q0.01,-1.02 0.07,-2.03q0.06,-1.02 0.17,-2.03q0.11,-1.01 0.27,-2.01q0.16,-1.01 0.36,-2.01q0.21,-0.99 0.47,-1.97q0.26,-0.99 0.57,-1.96q0.31,-0.97 0.66,-1.92q0.35,-0.96 0.76,-1.89q0.4,-0.93 0.85,-1.85q0.45,-0.91 0.94,-1.8q0.49,-0.89 1.03,-1.76q0.53,-0.86 1.11,-1.7c6.99,-10.04 16.83,-14.26 28.47,-16.3z" id="svg_21"/>
   <path d="m367.41,410.1c3.28,-0.33 6.91,-0.35 10.19,0.05q0.92,0.1 1.84,0.25q0.92,0.15 1.83,0.34q0.91,0.2 1.8,0.44q0.9,0.24 1.79,0.52q0.88,0.28 1.76,0.61q0.87,0.32 1.72,0.69q0.85,0.37 1.69,0.78q0.83,0.41 1.64,0.86q0.82,0.45 1.61,0.94q0.79,0.49 1.55,1.02q0.77,0.53 1.5,1.09q0.74,0.57 1.45,1.17q0.71,0.6 1.39,1.23q0.68,0.64 1.32,1.3q0.65,0.67 1.26,1.37q0.61,0.7 1.19,1.43c5.71,7.34 7.86,16.35 6.58,25.53c-1.38,9.9 -6.48,17.92 -14.36,23.93c1.03,5.48 3.24,10.48 5.44,15.56c-4.24,-1.46 -7.76,-3.44 -11.35,-6.14l-3.41,-3.94q-2.65,0.81 -5.34,1.48c-9.12,2.14 -18.89,0.24 -26.78,-4.7q-0.77,-0.48 -1.51,-1q-0.75,-0.52 -1.46,-1.07q-0.72,-0.55 -1.41,-1.14q-0.68,-0.59 -1.34,-1.22q-0.66,-0.62 -1.28,-1.28q-0.63,-0.65 -1.22,-1.34q-0.59,-0.68 -1.15,-1.4q-0.55,-0.71 -1.07,-1.46q-0.52,-0.74 -1,-1.51q-0.48,-0.76 -0.92,-1.56q-0.44,-0.79 -0.84,-1.6q-0.4,-0.81 -0.76,-1.64q-0.36,-0.83 -0.68,-1.68q-0.32,-0.85 -0.59,-1.71q-0.27,-0.87 -0.5,-1.74q-0.23,-0.88 -0.42,-1.77q-0.19,-0.89 -0.33,-1.79q-0.15,-0.9 -0.25,-1.8q-0.1,-0.91 -0.15,-1.82q-0.06,-0.9 -0.07,-1.81q-0.01,-0.91 0.03,-1.82q0.03,-0.91 0.11,-1.82q0.08,-0.91 0.21,-1.81q0.12,-0.9 0.29,-1.8q0.17,-0.89 0.39,-1.77q0.21,-0.89 0.47,-1.76q0.25,-0.88 0.55,-1.74q0.31,-0.86 0.65,-1.7q0.34,-0.84 0.72,-1.67q0.39,-0.82 0.81,-1.63q0.43,-0.8 0.89,-1.59q0.47,-0.78 0.97,-1.54c5.87,-8.7 14.5,-12.94 24.55,-14.82z" fill="#675D78" id="svg_22"/>
   <path d="m343.25,442.77c7.11,-0.75 55.21,-0.87 59.99,0.21l0.88,2.09c-6.77,0.34 -55.96,1.1 -59.91,-0.49c-0.53,-0.21 -0.75,-1.27 -0.96,-1.81z" fill="#FCF6F4" id="svg_23"/>
   <path d="m356.58,451.14c8.59,-0.03 39.87,-1.5 45.98,0.35l0.67,1.83c-7.17,0.45 -40.87,1.24 -45.96,-0.38l-0.69,-1.8z" fill="#FCF6F4" id="svg_24"/>
   <path d="m365.2,430.16c1.33,0.87 1.18,3.35 2.52,3.85c2.78,1.05 6.61,-1.23 9.61,0.44l0.31,1.19c-2.76,1.97 -18.77,0.92 -22.89,0.88c-3.37,0.09 -8.94,0.91 -11.71,-1.1l0.56,-0.83c5.89,-1.6 13.43,-0.26 19.68,-0.65c1.45,-0.93 1.46,-2.19 1.92,-3.78z" fill="#FCF6F4" id="svg_25"/>
   <path d="m789.92,339.17c2.06,-0.13 4.13,-0.09 6.02,0.85c7.34,3.7 38.82,-1.7 43.39,1.45l0.01,1.99c-1.46,1.99 -3.56,1.95 -5.55,3.33c-7.24,5.05 13.75,43.56 12.1,52.57c0.15,-0.19 0.31,-0.37 0.46,-0.57c2.65,-3.49 14.76,-44.28 13.93,-48.35c-0.71,-3.51 -5.81,-3.68 -8.06,-5.66c-1.03,-0.91 -0.76,-1.79 -0.78,-3.04c0.29,-0.25 0.35,-0.33 0.77,-0.47c2.68,-0.88 26.18,-0.88 27.87,0.08l0.29,1.41c-2.17,4.57 -7.53,3.3 -11.51,13.72c-3.7,9.69 -17.78,57.39 -21.42,61.69c-5.16,-0.12 -10.34,0.02 -15.5,0.05c0.08,-0.47 0.15,-0.97 0.12,-1.45c-0.31,-4.09 -8.88,-27.02 -11.42,-29.56c0.68,-2.63 -1.78,-7.39 -2.71,-9.98c-2.61,-7.31 -8.74,-28.98 -15.2,-32.05l-0.95,0.44c0.28,2.01 0.46,3.98 0.41,6.01c-0.09,3.68 -0.81,7.25 -3.64,9.84c-2.41,2.2 -5.64,2.89 -8.82,2.64c-6.85,-0.52 -7.67,-3.98 -11.67,-8.53c-2.33,1 -3.93,3.85 -6,5.44c-0.11,0.09 -0.22,0.17 -0.33,0.25c3.84,7.36 -2.61,38.36 2.01,47.59c2.1,4.21 7.83,3.9 11.8,5.3c1.16,1.33 1.11,1.39 1.14,3.16c-0.43,0.24 -0.42,0.27 -0.98,0.43c-4.08,1.15 -40.71,0.93 -43.46,-0.63c-0.47,-0.27 -0.45,-0.81 -0.59,-1.31c1.35,-2.37 3.87,-3.62 6.37,-4.4c0.93,-0.29 1.09,-0.69 1.71,-1.41c1.17,-4.23 1.6,-54.46 0.5,-57.44c-1.51,-4.08 -6.32,-4.92 -8.27,-8.45l0.41,-1.01c9.47,-2.14 19.52,-2.28 29.14,-3.78c0.26,0.4 0.38,0.55 0.55,0.96c1.32,3.19 0.69,8.65 -0.43,11.82c7.72,-4.28 7.05,-10.42 18.29,-12.93z" id="svg_26"/>
   <path d="m612.23,307.71c10.57,-1.25 20.36,2.6 29.9,6.58q0.18,-1.16 0.41,-2.3c0.39,-1.9 0.49,-2.39 2.05,-3.42c1.76,-0.02 2.11,0.05 3.63,0.91c0.84,1.37 1.3,2.58 1.46,4.18c0.35,3.59 -0.34,7.46 -0.37,11.09c-0.07,7.15 0.36,14.3 0.23,21.46c-0.55,0.47 -0.69,0.78 -1.44,0.85c-1.41,0.12 -3.37,0.18 -4.57,-0.69c-1.28,-0.92 -7,-20.74 -14.5,-27.01q-0.38,-0.32 -0.77,-0.62q-0.4,-0.3 -0.8,-0.57q-0.41,-0.28 -0.83,-0.54q-0.43,-0.26 -0.86,-0.49q-0.43,-0.24 -0.88,-0.45q-0.45,-0.21 -0.9,-0.4q-0.46,-0.19 -0.92,-0.36q-0.47,-0.17 -0.94,-0.31q-0.47,-0.14 -0.95,-0.26q-0.48,-0.12 -0.97,-0.21q-0.48,-0.1 -0.97,-0.17q-0.49,-0.07 -0.98,-0.11q-0.49,-0.05 -0.99,-0.07q-0.49,-0.01 -0.98,-0.01q-0.5,0.01 -0.99,0.04q-0.49,0.03 -0.98,0.08c-3.88,0.43 -7.87,2.24 -10.32,5.34c-2.47,3.12 -3.29,7.79 -2.82,11.67c1.79,14.74 30.15,21.24 41.93,30.61c6.41,5.1 10.83,11.45 11.72,19.74c0.9,8.35 -1.31,18.98 -6.75,25.58c-6.21,7.5 -15.66,10.99 -25.11,11.85c-7.37,0.75 -17.09,0.1 -24.1,-2.25c-3.2,-1.07 -6,-2.74 -9.32,-3.53c-2.11,0.61 -0.97,2.74 -2.43,4.31c-1.93,0.07 -3.32,-0.06 -5.19,-0.59q-0.18,-0.64 -0.29,-1.29c-0.34,-1.85 -0.67,-34.02 -0.37,-34.78c0.15,-0.36 0.46,-0.64 0.68,-0.95c1.29,-0.09 4.62,-0.47 5.63,0.31c3,2.32 5.71,19.97 14.13,26.89c5.13,4.21 12.36,5.27 18.8,4.52c4.06,-0.47 7.87,-2.13 10.4,-5.43c2.88,-3.76 3.62,-9 2.97,-13.59c-2.42,-17.2 -27.13,-21.15 -39.12,-30.3c-6.51,-4.96 -11.11,-11.5 -12.14,-19.74c-1.12,-8.86 0.19,-17.77 5.89,-24.89c6.01,-7.51 14.62,-9.67 23.72,-10.68z" id="svg_27"/>
   <path d="m687.31,339.78c0.94,-0.15 1.87,-0.11 2.81,-0.11c1.18,3.43 0.43,8.56 0.39,12.22c-0.1,10.19 -2.56,47.38 2.8,54.49c1.14,1.5 2.71,2.62 4.63,2.8c4.28,0.42 8.05,-2.25 11.15,-4.81l0.02,-48.52c-0.02,-6.3 -4.8,-6.87 -8.23,-10.6c-0.83,-0.89 -0.92,-0.95 -0.9,-2.17l0.88,0.11c2,-1.75 25.15,-3.15 29.76,-3.72c-0.2,15.11 0,30.24 0.05,45.34c0.02,7.18 -1.01,15.61 0.52,22.6c0.85,3.87 4.01,4.43 7.01,6.31l0.11,1.01c-4.36,3.2 -23.19,3.85 -29.2,4.41l0.03,-8.52c-8.86,6.54 -15.96,10.62 -27.46,8.97c-15.7,-2.25 -13.82,-17.97 -13.73,-29.98q0.12,-12.24 0.41,-24.48c0.09,-4.37 0.65,-9.5 -1.24,-13.56c-2.29,-4.89 -6.65,-3.29 -9.22,-6.76l0.42,-1.42c3.67,-2.68 23.26,-3.13 28.99,-3.61z" id="svg_28"/>
   <path d="m906.72,339.17c6.93,-0.31 13.93,0.38 20.04,3.93c6.08,3.53 10.11,9.48 11.84,16.23c0.97,3.79 2.75,12.26 0.75,15.63q-22.1,-0.27 -44.2,-0.18c3.72,5.51 0.95,18.49 9.98,26.48c4.12,3.64 10.07,4.55 15.38,4.09c6.31,-0.54 11.24,-3.84 15.21,-8.6c1.67,0.57 2.75,1.57 3.62,3.07c0.14,0.21 0.3,0.41 0.37,0.66c0.41,1.54 -1.08,3.69 -1.96,4.93c-5.08,7.19 -14.34,12.48 -22.94,13.94c-8.92,1.51 -18.4,0.34 -25.88,-5.01c-7.44,-5.33 -11.51,-13.67 -13.02,-22.53c-2.19,-12.93 -0.26,-28.55 7.55,-39.32c5.86,-8.09 13.66,-11.76 23.26,-13.32zm-11.13,29.93q6.32,0.46 12.66,0.41l10,0.03c1.96,-4.31 0.92,-12.69 -0.71,-16.96c-1.01,-2.66 -2.88,-5.73 -5.62,-6.89c-1.59,-0.67 -3.7,-0.33 -5.36,-0.11c-9.53,6.32 -6.97,14.57 -10.97,23.52z" id="svg_29"/>
   <path d="m985.17,398.14c1.22,-1.24 1.83,-2.15 2.45,-3.79c2.36,-6.29 13.47,-38.89 11.78,-43.36c-1.67,-4.4 -7.09,-5.11 -8.8,-8.91l0.52,-0.92c4.08,-0.59 23.9,-1.06 27.16,0.12c-0.01,4.4 -7.17,8.61 -9.06,12.74c-3.9,8.54 -11.03,37.77 -15.79,42.77c0.15,0.66 0.21,1.26 0.11,1.94c-1.2,7.92 -13.67,38.21 -18.39,45.18c-1.56,2.3 -3.52,4.15 -5.84,5.66c-4.82,3.14 -10.31,3.87 -15.86,2.61c-3.36,-0.76 -6.36,-2.39 -8.18,-5.4q-0.31,-0.5 -0.57,-1.04q-0.25,-0.53 -0.46,-1.09q-0.2,-0.56 -0.34,-1.14q-0.15,-0.57 -0.23,-1.16q-0.09,-0.59 -0.12,-1.18q-0.02,-0.59 0.01,-1.18q0.04,-0.6 0.13,-1.18q0.1,-0.59 0.25,-1.16c0.93,-3.36 4.14,-6.66 7.15,-8.28c9.27,-4.97 11.31,8.36 15.51,9.71c0.41,-0.19 0.79,-0.39 1.15,-0.65c3.93,-2.88 7.51,-13.97 8.17,-18.74q-0.73,-0.47 -1.44,-0.97l-0.51,-0.36c-3.86,-2.71 -20.24,-57.04 -26.21,-66.36c-1.78,-2.78 -4.28,-4.61 -6.79,-6.65c-1.86,-1.51 -1.67,-2 -1.9,-4.25c10.27,-0.27 30.58,-1.46 40.09,0.05l0.14,2.52c-1.1,1.85 -3.95,1.91 -5.79,3.11c-1.9,1.24 -2.21,3.31 -2.08,5.41c0.6,9.37 15.14,38.16 13.74,45.95z" id="svg_30"/>
  </g>
  <g id="svg_31"/>
 </g>
</svg>